<svg xmlns="http://www.w3.org/2000/svg" xmlns:xlink="http://www.w3.org/1999/xlink" viewBox="0 0 20 20" overflow="visible"><path d="M 6.68 0 L 10 0 L 10 3.32 L 6.68 3.32 Z M 13.36 0 L 16.64 0 L 16.64 3.32 L 13.36 3.32 Z M 3.36 3.36 L 6.64 3.36 L 6.64 6.64 L 3.36 6.64 Z M 10 3.36 L 13.32 3.36 L 13.32 6.64 L 10 6.64 Z M 16.68 3.36 L 20 3.36 L 20 6.64 L 16.68 6.64 Z M 0 6.68 L 3.32 6.68 L 3.32 13.32 L 0 13.32 Z M 6.68 6.68 L 10 6.68 L 10 13.32 L 6.68 13.32 Z M 3.36 13.36 L 6.64 13.36 L 6.64 16.64 L 3.36 16.64 Z M 10 13.36 L 13.32 13.36 L 13.32 16.64 L 10 16.64 Z M 16.68 13.36 L 20 13.36 L 20 16.64 L 16.68 16.64 Z M 6.68 16.68 L 10 16.68 L 10 20 L 6.68 20 Z M 13.36 16.68 L 16.64 16.68 L 16.64 20 L 13.36 20 Z" fill="rgb(255,255,255)"></path></svg>