<svg xmlns="http://www.w3.org/2000/svg" viewBox="0 0 24 24" fill="none"><path d="m20.609 3.52-.078-.077C17.881.876 14.24-.35 10.542.087a7.5 7.5 0 0 0-.398.054c-.122.018-.244.04-.354.062a4.313 4.313 0 0 0-.266.05 9.413 9.413 0 0 0-.701.165 13.464 13.464 0 0 0-5.56 2.927 13.26 13.26 0 0 0-3.067 3.89L0 7.615l4.565 4.498C2.24 15.719 1.786 18.9 3.39 20.482l.074.073a12.26 12.26 0 0 0 9.89 3.371c.132-.014.261-.032.398-.05l.1-.015c.121-.018.243-.04.361-.062.089-.018.177-.033.258-.051l.259-.055c.066-.014.136-.032.191-.043a13.437 13.437 0 0 0 5.816-2.989 13.444 13.444 0 0 0 3.066-3.895l.196-.378-4.565-4.498c2.322-3.603 2.779-6.785 1.178-8.367l-.004-.004Zm-1.624.12c.244.072.469.178.664.316.026.022.056.04.082.058.036.025.07.054.103.08.033.029.066.058.096.087 1.343 1.324.664 4.284-1.458 7.447.03-.098.056-.2.078-.298.443-1.844.122-3.6-1.052-4.756-1.236-1.218-3.151-1.502-5.133-.957 2.602-1.69 5.063-2.454 6.617-1.981l.003.003Zm-1.063 7.108c-.273 1.611-1.177 3.237-2.546 4.586-1.365 1.345-3.018 2.236-4.653 2.509-1.531.254-2.852-.077-3.716-.928-.863-.85-1.199-2.149-.94-3.661.272-1.608 1.173-3.233 2.534-4.578l.008-.008.007-.007c1.366-1.342 3.015-2.229 4.646-2.498 1.531-.255 2.849.076 3.716.927.863.851 1.2 2.15.94 3.662l.005-.004ZM1.454 7.396c.679-1.2 1.55-2.27 2.594-3.182a12.205 12.205 0 0 1 5.077-2.67 12.855 12.855 0 0 1 1.203-.25 11.082 11.082 0 0 1 7.336 1.425c-1.642.16-3.657.971-5.716 2.32-.151.098-.302.2-.454.302-.143.098-.284.2-.424.302l-.255.185A26.113 26.113 0 0 0 8.104 8.16c-.03.03-.055.058-.08.084l-.119.116-.059.058s-.015.015-.018.022l-.034.033a1.031 1.031 0 0 0-.062.065c-.034.037-.07.073-.104.106-.014.014-.026.029-.04.04-.008.007-.015.018-.022.025v.004l-.008.007.008-.007c0 .004-.008.007-.012.01l-.044.045c-.03.029-.055.058-.081.087.044-.044.085-.091.13-.135-.049.051-.1.102-.148.157 0 0-.008.007-.008.01-.077.08-.151.164-.225.244-.01.011-.018.018-.026.03a.731.731 0 0 0-.051.057c0 .004-.008.011-.011.015-.082.087-.16.174-.24.265a22.74 22.74 0 0 0-1.435 1.79l-3.96-3.891Zm3.564 12.967a2.372 2.372 0 0 1-.948-.55c-1.343-1.323-.664-4.283 1.458-7.447-.03.099-.056.2-.078.299-.443 1.843-.122 3.603 1.048 4.756 1.236 1.218 3.148 1.502 5.126.96-2.59 1.683-5.045 2.45-6.606 1.982Zm17.528-3.76a12.28 12.28 0 0 1-7.908 5.913l-.184.043c-.067.014-.137.033-.218.047-.077.015-.155.033-.236.044-.107.022-.218.04-.328.054l-.093.015c-.118.014-.236.033-.361.044a11.092 11.092 0 0 1-6.878-1.48c1.583-.153 3.509-.913 5.487-2.175.073-.047.15-.094.225-.145a17.525 17.525 0 0 0 .878-.604l.255-.185a26.125 26.125 0 0 0 2.712-2.331c.03-.03.055-.059.08-.084l.119-.116.059-.059s.015-.014.018-.021l.034-.033.066-.065c.033-.037.07-.07.103-.106.015-.014.026-.029.041-.04l.022-.025.008-.008-.008.008c0-.004.008-.008.011-.011l.044-.044c.03-.029.056-.058.085-.087-.044.047-.088.09-.129.138.052-.05.1-.105.152-.156 0 0 .003-.008.007-.008.077-.08.151-.163.225-.243.011-.011.018-.018.026-.03l.051-.057.011-.015c.082-.087.163-.178.24-.266.14-.16.277-.32.414-.48.059-.072.118-.145.177-.214.063-.076.125-.156.188-.233.229-.287.447-.574.657-.865l3.948 3.89v-.01Z" fill="white"/></svg>
